<svg xmlns="http://www.w3.org/2000/svg" width="86" height="86" viewBox="0 0 86 86"><defs><style>.a{fill:#f5f3f4;}.b{fill:#47525d;}</style></defs><g transform="translate(-597 -2127)"><circle class="a" cx="43" cy="43" r="43" transform="translate(597 2127)"/><g transform="translate(505.146 2053.448)"><path class="b" d="M129.034,126.07a1.928,1.928,0,0,1-2.04,1.02c-.91,0-1.723-.9-2.059-2.24l-1.02-5.1a1.021,1.021,0,0,0-1-.82c-1.02,0-1.02,0-1.023-1.955.32-3.839,1.225-5.264,2.68-6.428a1.017,1.017,0,0,0,.178-.185c.022-.031.049-.063.073-.094a4.974,4.974,0,0,0,4.21.067v-2.392a3.056,3.056,0,1,1,.847-3.289l2.079,0a5.194,5.194,0,0,0-4.965-4.08,5.078,5.078,0,0,0-3.8,8.468c-2.073,1.706-3.011,3.9-3.337,7.852,0,1.716,0,3.637,2.211,4.015l.879,4.392c.582,2.329,2.171,3.833,4.049,3.833a3.474,3.474,0,0,0,2.04-.675Z"/><path class="b" d="M140.912,128.458a3.48,3.48,0,0,0,2.039.672c1.878,0,3.468-1.5,4.06-3.88l.869-4.345c2.21-.378,2.21-2.307,2.207-4.1-.322-3.868-1.262-6.061-3.335-7.767a5.077,5.077,0,0,0-3.8-8.468,5.2,5.2,0,0,0-4.965,4.08h2.08a3.06,3.06,0,1,1,2.885,4.08,3.035,3.035,0,0,1-2.04-.786l0,2.394a4.975,4.975,0,0,0,4.206-.069c.024.032.051.063.073.095a1.053,1.053,0,0,0,.18.184c1.454,1.164,2.36,2.589,2.676,6.343,0,2.04,0,2.04-1.02,2.04a1.02,1.02,0,0,0-1,.82l-1.009,5.053c-.348,1.389-1.161,2.287-2.071,2.287a2.761,2.761,0,0,1-2.04-1.02Z" transform="translate(0.362)"/><path class="b" d="M142.13,120.806c-.322-3.868-1.261-6.061-3.334-7.767a5.1,5.1,0,1,0-7.6,0c-2.074,1.705-3.012,3.9-3.338,7.851,0,1.716,0,3.637,2.211,4.015l.879,4.392c.582,2.328,2.172,3.833,4.049,3.833h0c1.878,0,3.469-1.5,4.061-3.88l.868-4.345C142.134,124.526,142.134,122.6,142.13,120.806Zm-7.137-14.195a3.06,3.06,0,1,1-3.06,3.06A3.064,3.064,0,0,1,134.994,106.611Zm4.08,16.319a1.02,1.02,0,0,0-1,.82l-1.009,5.052c-.347,1.39-1.161,2.288-2.072,2.288s-1.723-.9-2.059-2.24l-1.02-5.1a1.021,1.021,0,0,0-1-.82c-1.02,0-1.02,0-1.023-1.955.319-3.838,1.225-5.263,2.68-6.428a1.019,1.019,0,0,0,.178-.185l.073-.094a5.017,5.017,0,0,0,.636.241l.854,1.281-1.36,3.4,2.04,2.72,2.04-2.72-1.36-3.4.854-1.281a5.089,5.089,0,0,0,.637-.241c.024.031.051.063.073.094a1.093,1.093,0,0,0,.178.185c1.455,1.165,2.361,2.59,2.677,6.343C140.095,122.93,140.095,122.93,139.074,122.93Z" transform="translate(0.16 0.08)"/></g></g></svg>