<svg xmlns="http://www.w3.org/2000/svg" width="69.687" height="59" viewBox="0 0 69.687 59"><defs><style>.a{fill:#93cfdc;}.a,.b{opacity:0.8;}.b{fill:#f3c300;}.c{fill:none;stroke:#111;stroke-linecap:round;stroke-miterlimit:10;}.d{fill:#111;}</style></defs><g transform="translate(-450.364 -1589.511)"><path class="a" d="M263.374,199.009v-6.854c0-.461.748-.834,1.67-.834H288.8c.922,0,1.669.373,1.669.834v5.328" transform="translate(186.99 1401.675)"/><path class="b" d="M321.52,201.662a5.07,5.07,0,0,1,5.07,5.069v35.406a1.67,1.67,0,0,1-1.67,1.67H265.043a1.67,1.67,0,0,1-1.669-1.67V197.472" transform="translate(186.99 1404.704)"/><path class="c" d="M325.52,198.662a5.07,5.07,0,0,1,5.07,5.069v35.406a1.67,1.67,0,0,1-1.67,1.67H269.043a1.67,1.67,0,0,1-1.669-1.67V194.472" transform="translate(188.96 1403.227)"/><path class="c" d="M267.374,197.009v-6.854c0-.461.748-.834,1.67-.834H292.8c.922,0,1.669.373,1.669.834v5.328" transform="translate(188.96 1400.69)"/><line class="c" y2="36.123" transform="translate(468.375 1607.909)"/><path class="c" d="M325.52,198.952H272.443a5.069,5.069,0,0,1-5.069-5.069" transform="translate(188.96 1402.937)"/><g transform="translate(481.871 1618.425)"><path class="d" d="M286.168,216.493h-1.684v-8.134h3.294c1.851,0,2.91.987,2.91,2.594a2.392,2.392,0,0,1-1.461,2.31l1.7,3.23h-1.907l-1.5-2.976h-1.349Zm0-4.21h1.449a1.213,1.213,0,0,0,1.343-1.3,1.24,1.24,0,0,0-1.36-1.3h-1.433Z" transform="translate(-284.484 -208.359)"/><path class="d" d="M296.4,216.493V211h-.045l-2.185,5.49H293.11L290.925,211h-.045v5.49h-1.5v-8.134h1.951l2.286,5.84h.043l2.287-5.84H297.9v8.134Z" transform="translate(-282.073 -208.359)"/></g></g></svg>