<svg xmlns="http://www.w3.org/2000/svg" width="86" height="86" viewBox="0 0 86 86"><defs><style>.a{fill:#f5f3f4;}.b{fill:#47525d;}</style></defs><g transform="translate(-279 -2129)"><circle class="a" cx="43" cy="43" r="43" transform="translate(279 2129)"/><g transform="translate(250.023 2052.524)"><path class="b" d="M76.972,112.627a6.057,6.057,0,1,0-9.03,0c-2.462,2.026-3.577,4.632-3.964,9.324,0,2.037,0,4.319,2.626,4.767l1.044,5.215c.692,2.765,2.579,4.552,4.809,4.552s4.118-1.787,4.822-4.607l1.032-5.16c2.626-.449,2.625-2.74,2.621-4.868C80.549,117.257,79.434,114.653,76.972,112.627Zm-4.515-7.633a3.634,3.634,0,1,1-3.634,3.634A3.637,3.637,0,0,1,72.457,104.993ZM77.3,124.373a1.211,1.211,0,0,0-1.187.974l-1.2,6c-.413,1.65-1.378,2.716-2.46,2.716S70.411,133,70.011,131.4L68.8,125.347a1.212,1.212,0,0,0-1.188-.974c-1.211,0-1.211,0-1.215-2.322.38-4.559,1.455-6.251,3.183-7.633a1.21,1.21,0,0,0,.212-.219l.087-.111a5.975,5.975,0,0,0,.757.286l1.014,1.521-1.616,4.037,2.422,3.23,2.422-3.23-1.615-4.037,1.014-1.521a6.045,6.045,0,0,0,.757-.286c.029.038.059.075.087.113a1.2,1.2,0,0,0,.212.218c1.728,1.382,2.8,3.074,3.179,7.533C78.514,124.373,78.514,124.373,77.3,124.373Z" transform="translate(0)"/></g></g></svg>