<svg xmlns="http://www.w3.org/2000/svg" width="86" height="86" viewBox="0 0 86 86"><defs><style>.a{fill:#f5f3f4;}.b{fill:none;stroke:#47525d;stroke-linecap:round;stroke-width:2.5px;}</style></defs><g transform="translate(-923 -2127)"><circle class="a" cx="43" cy="43" r="43" transform="translate(923 2127)"/><g transform="translate(953 2158.539)"><path class="b" d="M16.841,18.618h8.971V0l-5.3,5.275c.028.056.056.085.085.141a10.122,10.122,0,0,1,2.482,4.965,3.464,3.464,0,0,1-.762,2.877,3.529,3.529,0,0,1-2.68,1.269h0A2.818,2.818,0,0,1,16.925,12.5a2.853,2.853,0,0,1,1.213-3.188A5.094,5.094,0,0,1,19.182,8.8L12.892,3.3,6.6,8.745a5.967,5.967,0,0,1,1.044.508A2.853,2.853,0,0,1,8.858,12.44,2.81,2.81,0,0,1,6.15,14.471h0A3.4,3.4,0,0,1,3.47,13.2a3.536,3.536,0,0,1-.762-2.877A10,10,0,0,1,5.19,5.36c.028-.056.056-.085.085-.141L0,0V18.618H16.841Z" transform="translate(-0.252)"/><line class="b" x2="28.282" transform="translate(-1.5 23.642)"/></g></g></svg>