<svg xmlns="http://www.w3.org/2000/svg" width="94.284" height="78.828" viewBox="0 0 94.284 78.828"><defs><style>.a{fill:#f3c300;}.a,.b{opacity:0.8;}.b{fill:#93cfdc;}.c{fill:none;stroke:#111;stroke-linecap:round;stroke-miterlimit:10;}</style></defs><g transform="translate(-84 -1567.747)"><path class="a" d="M126.376,208.942V225.5a5.372,5.372,0,0,0-3.8-1.583v4.611c0-5.658-2.938-21.591-12.689-21.474-6.047.054-7.385,4.753-11.316,8.957-.19.2-.381.406-.579.606a16.038,16.038,0,0,1-2.024,1.734,18.021,18.021,0,0,1-7.26,3.272,18.72,18.72,0,0,1-3.731.379,15.745,15.745,0,0,1-9.724-3.534,18.651,18.651,0,0,1-4.855-5.827,23.524,23.524,0,0,1-2.64-8.923c-.984-10.1,4.664-21.085,17.219-22.169A14.439,14.439,0,0,1,95.366,184.4a10.662,10.662,0,0,1,5.206-1.328,10.832,10.832,0,0,1,9.78,6.164,3.552,3.552,0,0,0,.388.894v.01c1.527,2.682,6.579,6.542,10.53,9.309A11.674,11.674,0,0,1,126.376,208.942Z" transform="translate(16.347 1393.129)"/><path class="a" d="M109.578,193.58c-6.047.054-7.385,4.753-11.316,8.957-.191.2-.381.406-.579.606a16.033,16.033,0,0,1-2.024,1.734,18.021,18.021,0,0,1-7.26,3.272,18.72,18.72,0,0,1-3.731.379,15.745,15.745,0,0,1-9.724-3.534,22.9,22.9,0,0,0-.362,4.068v11.649A23.833,23.833,0,0,0,93.489,244.04a23.543,23.543,0,0,0,4.936.515,24.138,24.138,0,0,0,4.943-.515,23.848,23.848,0,0,0,18.9-23.329v-5.656C122.265,209.4,119.329,193.463,109.578,193.58Z" transform="translate(21.152 1401.521)"/><circle class="b" cx="14.551" cy="14.551" r="14.551" transform="translate(141.908 1567.747)"/><path class="c" d="M98.754,204.955a.009.009,0,0,0,.01.008.008.008,0,0,1,.008-.008A.014.014,0,0,0,98.754,204.955Z" transform="translate(37.913 1409.406)"/><path class="c" d="M112.925,193.58c-6.047.054-7.385,4.753-11.316,8.957-.19.2-.381.406-.579.606a16.032,16.032,0,0,1-2.024,1.734,18.021,18.021,0,0,1-7.26,3.272,18.72,18.72,0,0,1-3.731.379,15.745,15.745,0,0,1-9.724-3.534,22.9,22.9,0,0,0-.362,4.068v11.649A23.833,23.833,0,0,0,96.836,244.04a23.555,23.555,0,0,0,4.936.515,24.167,24.167,0,0,0,4.945-.515,23.849,23.849,0,0,0,18.9-23.329v-5.656C125.614,209.4,122.676,193.463,112.925,193.58Z" transform="translate(23.473 1401.521)"/><path class="c" d="M87.075,208.377a1.71,1.71,0,0,1-.1-3.417.248.248,0,0,1,.1-.012,1.615,1.615,0,0,1,.395.051H87.5a1.716,1.716,0,0,1-.422,3.378Z" transform="translate(28.622 1409.404)"/><path class="c" d="M99.3,208.377a1.714,1.714,0,0,1-.384-3.385c.015,0,.027-.007.046-.007l.014-.005h.012a1.639,1.639,0,0,1,.313-.032.046.046,0,0,1,.025.007c.007-.007.014-.007.019,0a.009.009,0,0,1,.014,0h.012l.014.005a1.71,1.71,0,0,1-.083,3.417Z" transform="translate(37.101 1409.404)"/><path class="c" d="M99.782,187.389A10.909,10.909,0,0,0,99.1,183.6" transform="translate(38.151 1394.597)"/><path class="c" d="M99.258,183.954a7.124,7.124,0,0,0-.391-.891" transform="translate(37.991 1394.228)"/><path class="c" d="M95.823,188.131a19.061,19.061,0,0,0-5.807-7.927" transform="translate(31.854 1392.245)"/><path class="c" d="M111.475,208.943v.813a5.4,5.4,0,0,1-5.387,5.414V203.538a5.385,5.385,0,0,1,5.262,4.32A4.477,4.477,0,0,1,111.475,208.943Z" transform="translate(42.999 1408.426)"/><path class="c" d="M80.132,203.538V215.17a5.4,5.4,0,0,1-5.378-5.414v-.813a4.934,4.934,0,0,1,.117-1.085,5.383,5.383,0,0,1,.769-1.87,4.543,4.543,0,0,1,.7-.867A5.353,5.353,0,0,1,80.132,203.538Z" transform="translate(21.27 1408.426)"/><path class="c" d="M132.376,205.942V222.5a5.372,5.372,0,0,0-3.8-1.583v4.611c0-5.658-2.938-21.591-12.689-21.475-6.047.054-7.385,4.753-11.316,8.957-.19.2-.381.406-.579.606a16.03,16.03,0,0,1-2.024,1.734,18.02,18.02,0,0,1-7.26,3.272,18.718,18.718,0,0,1-3.731.379,15.745,15.745,0,0,1-9.724-3.534,18.65,18.65,0,0,1-4.855-5.827,23.524,23.524,0,0,1-2.64-8.923c-.984-10.1,4.664-21.085,17.219-22.169a14.439,14.439,0,0,1,10.384,2.855,10.661,10.661,0,0,1,5.206-1.328,10.832,10.832,0,0,1,9.78,6.164,3.553,3.553,0,0,0,.388.894v.01c1.527,2.682,6.579,6.542,10.53,9.309A11.674,11.674,0,0,1,132.376,205.942Z" transform="translate(20.507 1391.049)"/><path class="c" d="M80.132,202.706a22.9,22.9,0,0,0-.362,4.068v1.382a5.353,5.353,0,0,0-3.788,1.583,4.542,4.542,0,0,0-.7.867V196.879A18.651,18.651,0,0,0,80.132,202.706Z" transform="translate(21.633 1403.808)"/><line class="c" y1="0.025" transform="translate(96.906 1614.414)"/><path class="c" d="M96.509,205v10.87c0,1.226-1.577,2.278-3.433,2.139L93.014,218c-1.543-.134-2.623-1.082-2.623-2.1V205" transform="translate(32.114 1409.439)"/><g transform="translate(133.759 1609.521)"><path class="c" d="M97.037,202.652a11.727,11.727,0,0,1,5.28-.412" transform="translate(-97.037 -202.096)"/></g><path class="c" d="M104.958,215.844a17.364,17.364,0,0,1-18.375.051" transform="translate(29.473 1416.959)"/><line class="c" x2="5.486" transform="translate(122.505 1637.836)"/><circle class="c" cx="14.551" cy="14.551" r="14.551" transform="translate(148.682 1569.44)"/><path class="c" d="M119.081,181.907l-5.682,7.1,7.458-1.421-6.748,7.813" transform="translate(48.068 1393.426)"/></g></svg>