<svg xmlns="http://www.w3.org/2000/svg" width="106.507" height="62.718" viewBox="0 0 106.507 62.718"><defs><style>.a{fill:#f3c300;}.a,.b{opacity:0.8;}.b{fill:#93cfdc;}.c{fill:none;stroke:#111;stroke-linecap:round;stroke-miterlimit:10;}</style></defs><g transform="translate(-262.993 -1589.853)"><circle class="a" cx="23.946" cy="23.946" r="23.946" transform="translate(262.993 1604.68)"/><circle class="b" cx="23.946" cy="23.946" r="23.946" transform="translate(317.88 1604.68)"/><circle class="c" cx="24.215" cy="24.215" r="24.215" transform="translate(268.105 1598.088)"/><circle class="c" cx="24.215" cy="24.215" r="24.215" transform="translate(320.57 1598.088)"/><path class="c" d="M215.971,199.794l-4.843-.336a9.955,9.955,0,0,0-19.909,0l-5.65.336" transform="translate(117.514 1400.849)"/><circle class="c" cx="4.036" cy="4.036" r="4.036" transform="translate(314.92 1595.263)"/><circle class="c" cx="18.968" cy="18.968" r="18.968" transform="translate(273.217 1603.604)"/><circle class="c" cx="18.968" cy="18.968" r="18.968" transform="translate(327.297 1603.604)"/><path class="c" d="M171.618,212.01a4.787,4.787,0,0,1,.554-3.536c1.417-2.48,5.206-7.744,11.993-8.143,9.146-.538,6.994,4.305,6.994,4.305s-.806,2.153-6.188.807c-4.134-1.034-6.523,3.494-7.406,5.645a4.773,4.773,0,0,1-2.277,2.518,2.523,2.523,0,0,1-2.829-.158A2.635,2.635,0,0,1,171.618,212.01Z" transform="translate(106.273 1409.46)"/><path class="c" d="M201.541,212.01a4.778,4.778,0,0,1,.554-3.536c1.417-2.48,5.206-7.744,11.991-8.143,9.148-.538,7,4.305,7,4.305s-.807,2.153-6.188.807c-4.136-1.034-6.523,3.494-7.407,5.645a4.773,4.773,0,0,1-2.277,2.518,2.52,2.52,0,0,1-2.827-.158A2.613,2.613,0,0,1,201.541,212.01Z" transform="translate(130.161 1409.46)"/><line class="c" x2="4.036" transform="translate(316.535 1622.303)"/></g></svg>