<svg xmlns="http://www.w3.org/2000/svg" width="70.896" height="71.695" viewBox="0 0 70.896 71.695"><defs><style>.a{fill:#f3c300;}.a,.b{opacity:0.8;}.b{fill:#93cfdc;}.c{fill:none;stroke:#111;stroke-linecap:round;stroke-miterlimit:10;}</style></defs><g transform="translate(-610.462 -1592.03)"><path class="a" d="M356.932,247.293l21.881-19.861,9.089,8.752,24.237-23.9" transform="translate(266.847 1415.932)"/><path class="b" d="M414.956,223.363a32.908,32.908,0,1,0-55.5,29.9l8.2-8.034" transform="translate(262.215 1406.044)"/><path class="c" d="M389.049,210.6" transform="translate(287.749 1414.837)"/><path class="c" d="M414.325,216.942a32.908,32.908,0,1,0-55.5,29.9l8.2-8.034" transform="translate(261.804 1401.865)"/><line class="c" x1="11.445" y2="0.589" transform="translate(610.987 1624.849)"/><line class="c" x1="7.742" y1="7.742" transform="translate(620.75 1602.622)"/><line class="c" x1="0.084" y1="10.772" transform="translate(643.892 1592.533)"/><circle class="c" cx="2.861" cy="2.861" r="2.861" transform="translate(640.947 1621.231)"/><line class="c" x1="15.653" y2="15.064" transform="translate(643.808 1609.028)"/><path class="c" d="M356.932,247.293l21.881-19.861,9.089,8.752,24.237-23.9" transform="translate(266.847 1415.932)"/><path class="c" d="M381.2,216.65l16.831-5.386-4.039,17.168" transform="translate(282.639 1415.268)"/></g></svg>