<svg xmlns="http://www.w3.org/2000/svg" width="96.554" height="89.635" viewBox="0 0 96.554 89.635"><defs><style>.a{fill:#93cfdc;}.a,.b{opacity:0.8;}.b{fill:#f3c300;}.c,.e{fill:none;stroke:#111;stroke-linecap:round;stroke-miterlimit:10;}.c{stroke-dasharray:6 6;}.d{fill:#f7f7f7;}</style></defs><g transform="translate(-107.381 -2728.5)"><circle class="a" cx="28.809" cy="28.809" r="28.809" transform="translate(107.381 2729.831)"/><path class="b" d="M131.938,324.177,70.825,303.022l19.914,62.224,12.752-12.712,10.622,10.622,15.67-15.67-10.6-10.6Z" transform="translate(69.288 2452.889)"/><path class="c" d="M99.2,345.952a28.811,28.811,0,1,1,16.606-33.765" transform="translate(55.567 2438.372)"/><path class="d" d="M75.8,295.731l-7.756,4.432,21.053,68.7,6.7-9.465Z" transform="translate(66.027 2444.349)"/><path class="e" d="M132.763,317.55,71.649,296.4l19.914,62.224,12.752-12.712,10.622,10.622,15.67-15.67-10.6-10.6Z" transform="translate(70.253 2445.127)"/></g></svg>