<svg xmlns="http://www.w3.org/2000/svg" width="92.561" height="66.218" viewBox="0 0 92.561 66.218"><defs><style>.a{fill:#f3c300;}.a,.b{opacity:0.8;}.b{fill:#93cfdc;}.c{fill:#f7f7f7;}.d{fill:none;stroke:#111;stroke-linecap:round;stroke-miterlimit:10;}</style></defs><g transform="translate(-333.397 -2738.584)"><path class="a" d="M140.273,343.114V299.579h.143v-2.824c0-1.5,1.549-2.706,3.459-2.706h19.633c1.911,0,3.459,1.21,3.459,2.706v2.824h48.844v9.441l-6.1,4.532-61.418,1.056Z" transform="translate(200.443 2444.534)"/><path class="b" d="M210.906,348.219H145.592c-2.039,0-3.691-1.292-3.691-2.887l9.443-35.094c0-1.6,1.652-2.887,3.691-2.887h65.313c2.039,0,3.691,1.292,3.691,2.887L214.6,345.332C214.6,346.927,212.945,348.219,210.906,348.219Z" transform="translate(201.918 2456.583)"/><path class="c" d="M157.179,312.759l-8.5,28.1-12.248,1.249,11.135-40.678h73.927l-4.177,10.488Z" transform="translate(196.965 2451.219)"/><path class="d" d="M208.018,345.207H142.7c-2.039,0-3.691-1.292-3.691-2.887l9.441-35.094c0-1.6,1.652-2.887,3.691-2.887h65.315c2.039,0,3.691,1.292,3.691,2.887l-9.443,35.094C211.709,343.915,210.057,345.207,208.018,345.207Z" transform="translate(199.302 2453.854)"/><path class="d" d="M214.847,311.279V301.84H166v-2.826c0-1.494-1.549-2.706-3.461-2.706H142.913c-1.911,0-3.461,1.212-3.461,2.706v2.826h-.141v43.533" transform="translate(199.572 2446.581)"/></g></svg>