<svg xmlns="http://www.w3.org/2000/svg" width="26" height="26" viewBox="0 0 26 26"><defs><style>.a{fill:rgba(243,195,0,0.64);stroke:#f3c300;}.b{fill:#fff;}.c{stroke:none;}.d{fill:none;}</style></defs><g transform="translate(-198 -772)"><g class="a" transform="translate(198 772)"><circle class="c" cx="13" cy="13" r="13"/><circle class="d" cx="13" cy="13" r="12.5"/></g><g transform="translate(-349 659)"><path class="b" d="M-11139.628-755a.528.528,0,0,1-.459-.263l-5.221-8.817.012,0a6.079,6.079,0,0,1-.679-3.409,7.48,7.48,0,0,1,1.563-3.825.563.563,0,0,1,.126-.123,7.348,7.348,0,0,1,4.367-1.561,6.087,6.087,0,0,1,6.081,6.079,6.016,6.016,0,0,1-.562,2.551h.014l-4.77,9.086A.53.53,0,0,1-11139.628-755Zm-.292-14.8a2.883,2.883,0,0,0-2.881,2.878,2.884,2.884,0,0,0,2.881,2.881,2.885,2.885,0,0,0,2.882-2.881A2.884,2.884,0,0,0-11139.92-769.8Z" transform="translate(11700 890)"/></g></g></svg>