<svg xmlns="http://www.w3.org/2000/svg" width="26" height="27.76" viewBox="0 0 26 27.76"><defs><style>.a{fill:rgba(32,185,58,0.56);stroke:#20b93a;}.b{fill:#fff;}</style></defs><g transform="translate(-197.999 -721.999)"><path class="a" d="M-11490.734,20.843A12.445,12.445,0,0,1-11493.5,13,12.5,12.5,0,0,1-11481,.5a12.5,12.5,0,0,1,12.5,12.5,12.5,12.5,0,0,1-12.5,12.5,12.456,12.456,0,0,1-4.979-1.031l.378.333-7,2.2Z" transform="translate(11692 722)"/><g transform="translate(-390 562.42)"><path class="b" d="M606.735,178.407a.493.493,0,0,1-.126.46,4.517,4.517,0,0,1-4.076,1.419c-2.466-.563-5.648-4.982-6.456-11.053-.7-5.281,3.585-5.648,4.714-5.654a.485.485,0,0,1,.415.22,5.288,5.288,0,0,1,.313,5.484.5.5,0,0,1-.294.225l-1.328.375a.487.487,0,0,0-.357.5,7.255,7.255,0,0,0,1.863,4.308.5.5,0,0,0,.714.035c.5-.468,1.467-1.142,2.277-.4A6.846,6.846,0,0,1,606.735,178.407Z" transform="translate(0 0)"/></g></g></svg>