<svg xmlns="http://www.w3.org/2000/svg" width="26" height="26" viewBox="0 0 26 26"><defs><style>.a{fill:rgba(243,195,0,0.64);stroke:#f3c300;}.b{fill:#fff;}.c{stroke:none;}.d{fill:none;}</style></defs><g transform="translate(-198 -676)"><g class="a" transform="translate(198 676)"><circle class="c" cx="13" cy="13" r="13"/><circle class="d" cx="13" cy="13" r="12.5"/></g><g transform="translate(-390 516.42)"><path class="b" d="M606.862,178.584a.5.5,0,0,1-.127.466,4.571,4.571,0,0,1-4.124,1.436c-2.5-.57-5.715-5.041-6.533-11.185-.712-5.344,3.628-5.715,4.77-5.721a.491.491,0,0,1,.42.223,5.351,5.351,0,0,1,.316,5.549.5.5,0,0,1-.3.228l-1.344.379a.493.493,0,0,0-.361.5,7.341,7.341,0,0,0,1.885,4.359.5.5,0,0,0,.722.035c.509-.474,1.485-1.155,2.3-.4A6.927,6.927,0,0,1,606.862,178.584Z" transform="translate(0 0)"/></g></g></svg>