<svg width="16" height="16" viewBox="0 0 16 16" fill="none" xmlns="http://www.w3.org/2000/svg">
<g clip-path="url(#clip0)">
<path d="M7.77 0C3.48574 0 0 3.4855 0 7.77C0 12.0545 3.48574 15.54 7.77 15.54C12.0543 15.54 15.54 12.0545 15.54 7.77C15.54 3.4855 12.0543 0 7.77 0ZM7.77 14.5837C4.01291 14.5837 0.956308 11.5271 0.956308 7.77C0.956308 4.01291 4.01291 0.956308 7.77 0.956308C11.5271 0.956308 14.5837 4.01291 14.5837 7.77C14.5837 11.5271 11.5271 14.5837 7.77 14.5837Z" fill="#CBCBCB"/>
<path d="M7.89371 5.47149C8.33538 5.47149 8.69342 5.11345 8.69342 4.67178C8.69342 4.23011 8.33538 3.87207 7.89371 3.87207C7.45204 3.87207 7.09399 4.23011 7.09399 4.67178C7.09399 5.11345 7.45204 5.47149 7.89371 5.47149Z" fill="#CBCBCB"/>
<path d="M7.68323 6.77588C7.41929 6.77588 7.20508 6.99009 7.20508 7.25403V11.3183C7.20508 11.5823 7.41929 11.7965 7.68323 11.7965C7.94717 11.7965 8.16138 11.5823 8.16138 11.3183V7.25403C8.16138 6.98985 7.94717 6.77588 7.68323 6.77588Z" fill="#CBCBCB"/>
</g>
<defs>
<clipPath id="clip0">
<rect width="15.54" height="15.54" fill="white"/>
</clipPath>
</defs>
</svg>
