<svg xmlns="http://www.w3.org/2000/svg" width="15.056" height="15.056" viewBox="0 0 15.056 15.056"><defs><style>.a{fill:#656b7b;fill-rule:evenodd;opacity:0.644;}</style></defs><path class="a" d="M635.307,282.7a4.879,4.879,0,1,0-4.879,4.879,4.849,4.849,0,0,0,4.879-4.879Zm-.139-5.576a.767.767,0,1,0,.767.767.774.774,0,0,0-.767-.767Zm-8.783-1.115h7.946a2.648,2.648,0,0,1,2.649,2.649V286.6a2.648,2.648,0,0,1-2.649,2.649h-7.946a2.648,2.648,0,0,1-2.649-2.649v-7.946a2.693,2.693,0,0,1,2.649-2.649Zm8.016-.906h-7.946a3.57,3.57,0,0,0-3.555,3.555V286.6a3.57,3.57,0,0,0,3.555,3.555H634.4a3.57,3.57,0,0,0,3.555-3.555v-7.946A3.57,3.57,0,0,0,634.4,275.1Zm-7.877,7.6a3.834,3.834,0,1,1,3.834,3.834,3.868,3.868,0,0,1-3.834-3.834Z" transform="translate(-622.9 -275.1)"/></svg>