<svg xmlns="http://www.w3.org/2000/svg" width="14.366" height="11.693" viewBox="0 0 14.366 11.693"><defs><style>.a{fill:#656b7b;opacity:0.644;}</style></defs><path class="a" d="M272.366,4.62a3.8,3.8,0,0,1-1.67.418,3.136,3.136,0,0,0,1.336-1.587,4.781,4.781,0,0,1-1.921.668,2.954,2.954,0,0,0-5.095,2,1.84,1.84,0,0,0,.083.668A8.3,8.3,0,0,1,259,3.785a2.884,2.884,0,0,0-.418,1.5,2.8,2.8,0,0,0,1.336,2.422,3.5,3.5,0,0,1-1.336-.334h0a4.886,4.886,0,0,0,.167,1.086,3.04,3.04,0,0,0,2.172,1.837,2.312,2.312,0,0,1-.752.084,1.631,1.631,0,0,1-.585-.084,2.964,2.964,0,0,0,2.756,2,6.092,6.092,0,0,1-3.675,1.253H258a8.4,8.4,0,0,0,4.51,1.336A8.2,8.2,0,0,0,270.7,8.378a6.253,6.253,0,0,0,.167-1.754V6.207A5.349,5.349,0,0,0,272.366,4.62Z" transform="translate(-258 -3.2)"/></svg>